<?xml version="1.0" encoding="UTF-8"?>
<svg version="1.1" xmlns="http://www.w3.org/2000/svg" width="505" height="506">
<path d="M0 0 C0.61842773 0.29890137 1.23685547 0.59780273 1.87402344 0.90576172 C12.86970706 6.31007299 22.9447965 13.03084979 33 20 C33.98613281 20.67804688 34.97226563 21.35609375 35.98828125 22.0546875 C64.54027139 42.24471391 91.73926735 67.68372888 108.29296875 98.8046875 C109.94823919 102.02765217 109.94823919 102.02765217 112 105 C112.69222656 103.61941406 112.69222656 103.61941406 113.3984375 102.2109375 C127.16259627 75.28184169 148.95354948 51.17421067 173 33 C173.92683594 32.25621094 174.85367188 31.51242188 175.80859375 30.74609375 C202.09984461 9.88055326 235.80745844 -14.11877508 271 -11 C275.77699014 -9.84858774 278.19700463 -8.0524992 281.1708374 -4.15464783 C284.05959049 1.19516437 283.52458727 6.98558684 283.45410156 12.91186523 C283.45468567 14.20035873 283.45526978 15.48885223 283.45587158 16.81639099 C283.45701476 20.33261933 283.43357071 23.84829692 283.40557575 27.36439776 C283.38049536 31.04523566 283.37821489 34.72608752 283.37347412 38.40699768 C283.36106374 45.36966491 283.32826867 52.33207959 283.28807616 59.29463583 C283.24329785 67.22447853 283.22135623 75.15433357 283.20129442 83.08427131 C283.15953408 99.38966182 283.0892201 115.69479863 283 132 C282.33482864 132.0494577 281.66965729 132.09891541 280.98432922 132.14987183 C277.90180259 132.38269353 274.82007797 132.62490252 271.73828125 132.8671875 C270.69256958 132.94477295 269.64685791 133.0223584 268.56945801 133.10229492 C258.84656079 133.8783272 249.40874931 135.59184322 239.88745117 137.66455078 C238 138 238 138 235 138 C234.67 110.28 234.34 82.56 234 54 C224.36243278 59.78254033 216.27046461 64.81079935 208 72 C207.00484375 72.82878662 206.0096875 73.65757324 204.984375 74.51147461 C196.08567137 81.94688704 187.8165682 89.90386545 179.65649414 98.13769531 C177.54569754 100.26694939 175.42680599 102.38789081 173.30664062 104.5078125 C171.93442059 105.88494328 170.5626591 107.26253116 169.19140625 108.640625 C168.57149307 109.261651 167.9515799 109.882677 167.31288147 110.52252197 C163.58623203 114.2891337 160.03680156 118.16844676 156.57749939 122.18218994 C154.11796076 125.01640597 151.55814417 127.7550465 149 130.5 C139.64532902 140.5953634 130.75853248 151.0807414 121.953125 161.65625 C121.45844727 162.24768799 120.96376953 162.83912598 120.45410156 163.44848633 C119.5049132 164.58365569 118.55880124 165.72140655 117.61621094 166.86206055 C115.52108846 169.36247544 113.73887627 171.17408248 111 173 C98.55001633 158.74120881 98.55001633 158.74120881 93.375 152.3125 C89.33400049 147.32415995 85.0509313 142.60640617 80.6875 137.90234375 C78.26739391 135.28876988 75.87691414 132.65280596 73.5 130 C69.29701473 125.31495191 65.04087527 120.68094887 60.7734375 116.0546875 C58.72128869 113.81723132 56.73361755 111.53214498 54.75390625 109.23046875 C50.56272174 104.42588455 46.07996794 99.9334391 41.5625 95.4375 C40.75490234 94.62603516 39.94730469 93.81457031 39.11523438 92.97851562 C34.23921346 88.11035293 29.23561621 83.47691286 24 79 C22.97816928 78.10008958 21.95726592 77.19912455 20.9375 76.296875 C15.033025 71.17756955 9.00099193 66.43428052 2.5625 62 C1.90056641 61.54334961 1.23863281 61.08669922 0.55664062 60.61621094 C-3.24395368 58.0459002 -6.82599222 56.08700389 -11 54 C-11 81.72 -11 109.44 -11 138 C-14.96 137.34 -18.92 136.68 -23 136 C-26.60302569 135.46096466 -30.20413459 134.93638885 -33.8125 134.4375 C-34.68197266 134.31181641 -35.55144531 134.18613281 -36.44726562 134.05664062 C-41.91019794 133.30108663 -47.36279197 132.80386315 -52.8659668 132.45727539 C-53.55497826 132.41266426 -54.24398972 132.36805313 -54.95388031 132.32209015 C-56.6358338 132.21338147 -58.31790529 132.1065012 -60 132 C-60.07016455 115.3186757 -60.12302457 98.63739946 -60.15543652 81.95596313 C-60.17088775 74.2100124 -60.19194379 66.4641535 -60.22631836 58.71826172 C-60.25627427 51.96482689 -60.27558767 45.2114586 -60.28226548 38.45795918 C-60.2861673 34.88392714 -60.29530039 31.31008539 -60.31719017 27.7361145 C-60.34146165 23.74065811 -60.34196603 19.74552993 -60.34057617 15.75 C-60.351362 14.57251694 -60.36214783 13.39503387 -60.3732605 12.18186951 C-60.32232011 -1.36136845 -60.32232011 -1.36136845 -55.58336163 -6.55151367 C-40.91745488 -19.38922927 -14.85056527 -7.18850232 0 0 Z " fill="#FE9F29" transform="translate(142,165)"/>
<path d="M0 0 C3.35908649 0.14503621 6.71788173 0.29600715 10.07666016 0.44799805 C11.4939315 0.50908375 11.4939315 0.50908375 12.93983459 0.5714035 C19.84371142 0.88791335 26.57253644 1.56402661 33.375 2.8125 C34.88211548 3.07752319 34.88211548 3.07752319 36.41967773 3.34790039 C44.42112409 4.79820676 52.22093978 6.61122466 60 9 C61.19109375 9.35707031 62.3821875 9.71414063 63.609375 10.08203125 C87.797326 17.71093141 110.83756908 29.67109773 131 45 C131.63550781 45.48001465 132.27101562 45.9600293 132.92578125 46.45458984 C139.8262521 51.69244725 146.45408601 57.14151064 152.828125 63.015625 C154.73861763 64.76118302 156.69004214 66.41857451 158.6875 68.0625 C161.96711324 70.83040054 164.6860301 73.96726993 167.421875 77.265625 C169.0792468 79.22768174 169.0792468 79.22768174 172 81 C172.48726562 80.42894531 172.97453125 79.85789062 173.4765625 79.26953125 C208.8163705 38.85364174 260.14942853 11.2603756 312.9375 2.625 C313.88181885 2.46942627 314.8261377 2.31385254 315.79907227 2.15356445 C321.9883102 1.22732357 328.15305195 0.77717079 334.39672852 0.45458984 C335.2266053 0.41017258 336.05648209 0.36575531 336.91150665 0.31999207 C338.94091379 0.21161702 340.97044503 0.10557024 343 0 C343.09283355 11.0747694 343.16383284 22.14944565 343.20724869 33.22452545 C343.22809011 38.36759726 343.25634483 43.51040212 343.30175781 48.65332031 C343.3453384 53.62001659 343.36916301 58.58645669 343.37950897 63.55332947 C343.38687844 65.44469737 343.40126928 67.33605185 343.42292023 69.22731018 C343.45211682 71.88426604 343.45594926 74.5401742 343.45410156 77.19726562 C343.46848267 77.97266693 343.48286377 78.74806824 343.49768066 79.54696655 C343.4560261 85.11197071 342.07928493 89.34041484 339 94 C334.71383901 98.07707997 331.50193311 99.123394 325.68408585 99.13422108 C324.5747098 99.13867892 323.46533375 99.14313676 322.32234025 99.14772969 C320.48662796 99.14745315 320.48662796 99.14745315 318.61383057 99.14717102 C316.66953962 99.15268605 316.66953962 99.15268605 314.68597007 99.1583125 C311.08056039 99.16833688 307.47516737 99.17204999 303.86974573 99.17470181 C299.9841405 99.17860353 296.09854847 99.18818191 292.21295166 99.19691467 C282.82588168 99.21668214 273.43881062 99.22674535 264.05172503 99.23564246 C259.63250255 99.24002463 255.21328128 99.2453916 250.79405975 99.25063133 C236.10608799 99.26764339 221.41811698 99.28213818 206.73013687 99.28938007 C202.91807301 99.29129 199.10600915 99.29321033 195.29394531 99.29516602 C194.34646249 99.29564976 193.39897967 99.2961335 192.42278525 99.2966319 C177.06966732 99.30493454 161.71662723 99.33027552 146.3635433 99.36274669 C130.60539003 99.39580324 114.84727634 99.41382754 99.0890882 99.41702431 C90.23958239 99.41919064 81.39019013 99.42795729 72.54071808 99.45348549 C65.00509971 99.47517326 57.46962248 99.48325239 49.93397644 99.47351871 C46.08902212 99.46896848 42.24435911 99.4709019 38.39944458 99.49028015 C34.23079191 99.51110864 30.06278762 99.50094447 25.894104 99.48774719 C24.6792187 99.49871644 23.46433339 99.50968568 22.21263337 99.52098733 C15.57660944 99.4701366 11.37060419 99.01446772 6 95 C0.6334846 89.34340268 -0.29750309 84.24100412 -0.22705078 76.62963867 C-0.22734283 75.79985504 -0.22763489 74.97007141 -0.22793579 74.11514282 C-0.22654661 71.38264371 -0.21100483 68.65042001 -0.1953125 65.91796875 C-0.19158091 64.01939544 -0.18873462 62.12082019 -0.18673706 60.22224426 C-0.17911214 55.23274388 -0.15947342 50.2433605 -0.1373291 45.25390625 C-0.1168461 40.15952131 -0.10773009 35.0651174 -0.09765625 29.97070312 C-0.07622648 19.98041743 -0.04210428 9.99021846 0 0 Z " fill="#5A2B82" transform="translate(82,321)"/>
<path d="M0 0 C1.1024707 0.35271973 2.20494141 0.70543945 3.34082031 1.06884766 C45.83891982 14.94723466 89.70811324 38.70947874 112 79 C112.3403125 78.32195312 112.680625 77.64390625 113.03125 76.9453125 C116.67757238 69.94359772 120.89362199 64.00205318 126 58 C126.515625 57.36191406 127.03125 56.72382813 127.5625 56.06640625 C140.21248994 40.63204353 158.57026727 29.23037535 176 20 C176.89058105 19.52208008 177.78116211 19.04416016 178.69873047 18.55175781 C191.91327226 11.55351732 205.40149637 6.20164741 219.5625 1.5 C220.31264374 1.25033478 221.06278748 1.00066956 221.83566284 0.74343872 C250.63058757 -8.76672837 250.63058757 -8.76672837 262.5 -8.5 C263.21929687 -8.51546875 263.93859375 -8.5309375 264.6796875 -8.546875 C270.15539085 -8.50733924 274.58748482 -7.3190962 279 -4 C282.92617544 1.35937332 283.55956896 6.62970689 283.390625 13.09375 C283.38496521 13.92588013 283.37930542 14.75801025 283.37347412 15.61535645 C283.35128184 18.2441841 283.30112133 20.87159217 283.25 23.5 C283.22991268 25.29425099 283.21166584 27.08852359 283.1953125 28.8828125 C283.15147383 33.25574602 283.08256939 37.62763328 283 42 C282.36723145 42.03963867 281.73446289 42.07927734 281.08251953 42.12011719 C267.41412837 43.01502723 254.21258403 44.29215643 241 48 C240.28215332 48.20077148 239.56430664 48.40154297 238.82470703 48.60839844 C212.65369971 56.16231605 189.21478967 70.16876197 168 87 C167.18402344 87.64026123 167.18402344 87.64026123 166.3515625 88.29345703 C145.40728274 104.8548076 125.06285629 125.87428743 113 150 C108.79282871 148.59760957 107.74393788 145.59103167 105.625 141.9375 C77.51240259 95.32645644 27.48337037 59.31226797 -25 46 C-32.65593522 44.15360598 -40.28051663 43.43141103 -48.125 42.875 C-49.27226563 42.78863281 -50.41953125 42.70226562 -51.6015625 42.61328125 C-54.40068202 42.40334729 -57.20008795 42.19903375 -60 42 C-60.07461471 37.01956391 -60.12881987 32.03945911 -60.16479492 27.05859375 C-60.17980505 25.36712978 -60.20021963 23.67570422 -60.22631836 21.984375 C-60.26304686 19.54156976 -60.27980411 17.0992827 -60.29296875 14.65625 C-60.30845261 13.91008423 -60.32393646 13.16391846 -60.33988953 12.3951416 C-60.34168399 6.69210834 -59.54212964 0.81248741 -55.58317566 -3.56750488 C-41.31412075 -15.91517802 -15.26516771 -4.89384531 0 0 Z " fill="#FE9F29" transform="translate(142,87)"/>
</svg>
